<?xml version="1.0" encoding="utf-8"?>
<!-- Generator: Adobe Illustrator 23.1.0, SVG Export Plug-In . SVG Version: 6.00 Build 0)  -->
<svg version="1.1" id="Camada_1" xmlns="http://www.w3.org/2000/svg" xmlns:xlink="http://www.w3.org/1999/xlink" x="0px" y="0px"
	 viewBox="0 0 205.4 76.5" style="enable-background:new 0 0 205.4 76.5;" xml:space="preserve">
<style type="text/css">
	.st0{fill-rule:evenodd;clip-rule:evenodd;fill:#FFFFFF;}
	.st1{fill:#FFFFFF;}
</style>
<g id="Layer_x0020_1">
	<g id="_1806447235440">
		<path class="st0" d="M0,0.1h76.5l-12,12c-2.3,2.3-5,3.4-8.2,3.4H15.3v40.9c0,3.2-1.1,6-3.4,8.2l-12,12L0,0.1L0,0.1z M30.7,30.9h15
			v15h-15C30.7,45.9,30.7,30.9,30.7,30.9z"/>
		<path class="st1" d="M115.3,23.4H94.1v10.5h20.9V41H94.1v19.9h-8.6v-45h29.8C115.3,15.9,115.3,23.4,115.3,23.4z M151.5,60.9H121
			v-45h8.9v36.6h21.6C151.5,52.5,151.5,60.9,151.5,60.9z M165.3,60.9h-8.7v-45h8.7V60.9z M205.3,31c0,2.1-0.4,4.1-1.2,6
			c-0.8,1.9-1.9,3.5-3.3,4.8c-1.4,1.4-3,2.4-4.9,3.2c-1.9,0.8-3.9,1.2-6,1.2h-7.5V61h-8.7v-45h16.2c2.1,0,4.1,0.4,6,1.2
			c1.9,0.8,3.5,1.8,4.9,3.2c1.4,1.4,2.5,2.9,3.3,4.8C204.9,26.9,205.3,28.9,205.3,31z M196.6,30.9c0-1.2-0.2-2.3-0.6-3.3
			c-0.4-1-1-1.9-1.8-2.6c-0.8-0.8-1.6-1.4-2.6-1.8c-1-0.5-2.1-0.7-3.3-0.7h-5.8v17h5.8c1.2,0,2.3-0.2,3.3-0.7c1-0.5,1.9-1.1,2.6-1.9
			c0.8-0.8,1.3-1.7,1.8-2.7C196.4,33.2,196.6,32.1,196.6,30.9z"/>
	</g>
</g>
</svg>
