<?xml version="1.0" encoding="UTF-8"?>
<!DOCTYPE svg PUBLIC "-//W3C//DTD SVG 1.1//EN" "http://www.w3.org/Graphics/SVG/1.1/DTD/svg11.dtd">
<!-- Creator: CorelDRAW 2019 (64-Bit) -->
<svg xmlns="http://www.w3.org/2000/svg" xml:space="preserve" width="2.85228in" height="1.06299in" version="1.1" style="shape-rendering:geometricPrecision; text-rendering:geometricPrecision; image-rendering:optimizeQuality; fill-rule:evenodd; clip-rule:evenodd"
viewBox="0 0 2852.28 1062.99"
 xmlns:xlink="http://www.w3.org/1999/xlink">
 <defs>
  <style type="text/css">
   <![CDATA[
    .fil0 {fill:#7E51DF}
    .fil1 {fill:#606062;fill-rule:nonzero}
   ]]>
  </style>
 </defs>
 <g id="Layer_x0020_1">
  <metadata id="CorelCorpID_0Corel-Layer"/>
  <g id="_1806447235440">
   <path class="fil0" d="M-0.52 1.84l1063 0 -166.4 166.4c-31.44,31.43 -69.7,47.28 -114.16,47.28l-568.75 0 0 568.75c0,44.46 -15.85,82.72 -47.28,114.16l-166.4 166.4 0 -1063zm427.35 427.36l208.28 0 0 208.28 -208.28 0 0 -208.28z"/>
   <path class="fil1" d="M1601.83 325.26l-294.28 0 0 145.58 290.37 0 0 98.62 -290.37 0 0 277.06 -118.97 0 0 -625.35 413.25 0 0 104.09zm501.69 521.26l-423.43 0 0 -625.35 123.67 0 0 507.95 299.76 0 0 117.4zm191.76 0l-121.32 0 0 -625.35 121.32 0 0 625.35zm556.47 -415.59c0,29.74 -5.61,57.52 -16.82,83.35 -11.35,25.83 -26.61,48.27 -45.92,67.31 -19.43,19.04 -42.13,33.91 -68.22,44.61 -26.22,10.7 -53.87,16.05 -83.22,16.05l-103.57 0 0 204.28 -121.32 0 0 -625.35 225.02 0c29.22,0 57,5.35 83.09,16.04 26.22,10.69 48.91,25.44 68.22,44.22 19.31,18.79 34.7,40.96 45.92,66.53 11.22,25.57 16.82,53.22 16.82,82.96zm-121.31 -1.57c0,-16.18 -3,-31.31 -9,-45.4 -6,-14.09 -14.22,-26.35 -24.66,-36.78 -10.43,-10.44 -22.69,-18.78 -36.78,-25.05 -14.09,-6.26 -29.22,-9.39 -45.39,-9.39l-80.61 0 0 236.36 80.61 0c16.17,0 31.31,-3.26 45.39,-9.78 14.09,-6.52 26.35,-15.26 36.78,-26.22 10.44,-10.96 18.65,-23.61 24.66,-37.96 6,-14.35 9,-29.61 9,-45.78z"/>
  </g>
 </g>
</svg>
